# xmcd
#
# Track frame offsets:
#	150
#	13379
#	26443
#	38656
#	51625
#	65347
#	78949
#	88279
#	108454
#	119880
#	131308
#	141555
#	155114
#	168120
#	181907
#
# Disc length: 2686 seconds
#
# Revision: 0
# Processed by: cddbd v1.5.1PL0 Copyright (c) Steve Scherf et al.
# Submitted via: dBpowerAMP V4.0
#
DISCID=d60a7c0f
DTITLE=La Autentica De Jerez Zacatecas - 15 Exitos
DYEAR=1900
DGENRE=Blues
TTITLE0=Rodeo De San Pablo
TTITLE1=Juan Marta
TTITLE2=La Feria De Los Flores
TTITLE3=24 Horas Del Dia
TTITLE4=Pavido Navido
TTITLE5=Dos Gotas De Agua
TTITLE6=Baltazar
TTITLE7=Las Mujeres Lo Bailan Bien
TTITLE8=Lino Rodarte
TTITLE9=El Capiro
TTITLE10=Por Ningun Motivo
TTITLE11=Alnulfo Berumen
TTITLE12=Al Estilo Zacatecas El Coleadero
TTITLE13=El Ahuchote
TTITLE14=El Matador
EXTD=
EXTT0=
EXTT1=
EXTT2=
EXTT3=
EXTT4=
EXTT5=
EXTT6=
EXTT7=
EXTT8=
EXTT9=
EXTT10=
EXTT11=
EXTT12=
EXTT13=
EXTT14=
PLAYORDER=
